<svg width="36" height="36" viewBox="0 0 36 36" fill="none" xmlns="http://www.w3.org/2000/svg">
<path d="M30.394 12.3206C28.4876 10.8152 26.1939 9.88021 23.7784 9.62372L20.9904 12.4117L16.7012 16.7009L12.412 20.9901L9.62402 23.7781C9.88052 26.1936 10.8155 28.4873 12.3209 30.3937C13.8263 32.3002 15.8406 33.7415 18.1309 34.5512C20.4211 35.3608 22.8938 35.5057 25.2629 34.9689C25.5636 34.9008 25.8611 34.822 26.1548 34.7329C28.1753 34.1201 30.0188 33.0178 31.5184 31.5181C33.0181 30.0185 34.1204 28.175 34.7332 26.1546C34.8223 25.8608 34.9011 25.5633 34.9692 25.2626C35.506 22.8935 35.3611 20.4208 34.5515 18.1306C33.7418 15.8403 32.3005 13.826 30.394 12.3206Z" fill="url(#paint0_linear_2002_5900)" fill-opacity="0.6"/>
<path fill-rule="evenodd" clip-rule="evenodd" d="M23.2743 9.11969C23.4265 8.96742 23.6395 8.89214 23.8536 8.91488C26.403 9.18558 28.8237 10.1724 30.8358 11.7612C32.8478 13.35 34.3691 15.4759 35.2236 17.893C36.0781 20.3101 36.2309 22.9198 35.6645 25.4201C35.5973 25.7164 35.5204 26.0097 35.434 26.2996C35.4252 26.3431 35.4122 26.386 35.3951 26.4277C34.7461 28.5288 33.5947 30.4461 32.0345 32.0103C32.0306 32.0144 32.0266 32.0184 32.0226 32.0224C32.0186 32.0264 32.0145 32.0304 32.0104 32.0343C30.4462 33.5946 28.5287 34.746 26.4276 35.395C26.3861 35.412 26.3434 35.4249 26.3 35.4337C26.01 35.5202 25.7167 35.5971 25.4204 35.6642C22.92 36.2307 20.3104 36.0778 17.8932 35.2233C15.4761 34.3688 13.3502 32.8476 11.7614 30.8355C10.1726 28.8235 9.18583 26.4028 8.91512 23.8534C8.89238 23.6392 8.96766 23.4263 9.11993 23.274L23.2743 9.11969ZM20.9904 13.4199L17.7093 16.701L31.5036 30.4952C32.5781 29.2867 33.3993 27.8772 33.9211 26.3506L20.9904 13.4199ZM34.3469 24.7601C34.7653 22.6282 34.6049 20.4207 33.8794 18.3682C33.1146 16.2048 31.753 14.3021 29.9522 12.8801C28.2396 11.5278 26.1961 10.6627 24.0374 10.3728L21.9985 12.4118L34.3469 24.7601ZM30.4954 31.5034L16.7011 17.7091L13.4201 20.9902L26.3508 33.9209C27.8774 33.3991 29.2869 32.5778 30.4954 31.5034ZM24.7603 34.3466L12.412 21.9983L10.3731 24.0372C10.663 26.1959 11.528 28.2393 12.8804 29.952C14.3024 31.7528 16.2051 33.1143 18.3685 33.8791C20.4209 34.6047 22.6284 34.765 24.7603 34.3466Z" fill="#1A1C1E"/>
<path fill-rule="evenodd" clip-rule="evenodd" d="M13.5445 1.42574C6.85149 1.42574 1.42574 6.85149 1.42574 13.5445C1.42574 20.2375 6.85149 25.6632 13.5445 25.6632C20.2375 25.6632 25.6632 20.2375 25.6632 13.5445C25.6632 6.85149 20.2375 1.42574 13.5445 1.42574ZM0 13.5445C0 6.06407 6.06407 0 13.5445 0C21.0249 0 27.089 6.06407 27.089 13.5445C27.089 21.0249 21.0249 27.089 13.5445 27.089C6.06407 27.089 0 21.0249 0 13.5445Z" fill="#1A1C1E"/>
<path fill-rule="evenodd" clip-rule="evenodd" d="M6.68311 9.26718C6.68311 8.87348 7.00228 8.55431 7.39598 8.55431H11.6732C11.9432 8.55431 12.19 8.70687 12.3108 8.94838C12.4316 9.18989 12.4055 9.47889 12.2435 9.6949L10.3492 12.2206C10.4455 12.26 10.54 12.3041 10.6325 12.3527C11.103 12.6 11.5063 12.958 11.8077 13.3958C12.1091 13.8336 12.2995 14.3381 12.3627 14.8658C12.4258 15.3936 12.3597 15.9288 12.17 16.4253C11.9804 16.9219 11.6729 17.3649 11.274 17.7162C10.8751 18.0674 10.3968 18.3165 9.88028 18.4419C9.36376 18.5673 8.8245 18.5653 8.30894 18.4359C7.79339 18.3066 7.31699 18.0539 6.92078 17.6996C6.62731 17.4372 6.60215 16.9865 6.8646 16.6931C7.12704 16.3996 7.5777 16.3744 7.87118 16.6369C8.09512 16.8371 8.36439 16.98 8.65579 17.053C8.94719 17.1261 9.25199 17.1273 9.54394 17.0564C9.83589 16.9855 10.1062 16.8448 10.3317 16.6462C10.5571 16.4476 10.731 16.1973 10.8381 15.9166C10.9453 15.636 10.9827 15.3335 10.947 15.0352C10.9114 14.7369 10.8037 14.4517 10.6333 14.2042C10.463 13.9568 10.235 13.7545 9.96909 13.6147C9.70316 13.4749 9.40724 13.4018 9.10682 13.4018C8.83681 13.4018 8.58999 13.2492 8.46924 13.0077C8.3485 12.7662 8.37457 12.4772 8.53657 12.2612L10.2475 9.98005H7.39598C7.00228 9.98005 6.68311 9.66089 6.68311 9.26718ZM19.2873 10.4255C18.8578 10.1283 18.3835 9.97986 17.9108 9.98005C17.4381 9.98024 16.9638 10.1291 16.5344 10.4266C16.1034 10.7253 15.7308 11.1655 15.4663 11.7153C15.2018 12.265 15.0593 12.8963 15.0593 13.5444C15.0593 14.1925 15.2018 14.8237 15.4663 15.3735C15.7308 15.9232 16.1034 16.3635 16.5344 16.6622C16.9638 16.9597 17.4381 17.1085 17.9108 17.1087C18.3835 17.1089 18.8578 16.9605 19.2873 16.6633C19.6111 16.4393 20.0552 16.5201 20.2792 16.8439C20.5032 17.1677 20.4223 17.6117 20.0986 17.8357C19.444 18.2886 18.6889 18.5348 17.9102 18.5345C17.1315 18.5341 16.3766 18.2874 15.7223 17.834C15.0697 17.3817 14.5426 16.7422 14.1815 15.9916C13.8204 15.2412 13.6336 14.3976 13.6336 13.5444C13.6336 12.6912 13.8204 11.8476 14.1815 11.0971C14.5426 10.3466 15.0697 9.70704 15.7223 9.25477C16.3766 8.80138 17.1315 8.55463 17.9102 8.55431C18.6889 8.554 19.444 8.80015 20.0986 9.25304C20.4223 9.47705 20.5032 9.92112 20.2792 10.2449C20.0552 10.5686 19.6111 10.6495 19.2873 10.4255Z" fill="#1A1C1E"/>
<path fill-rule="evenodd" clip-rule="evenodd" d="M1.42574 13.5445C1.42574 6.85149 6.85149 1.42574 13.5445 1.42574C20.2375 1.42574 25.6632 6.85149 25.6632 13.5445C25.6632 20.2375 20.2375 25.6632 13.5445 25.6632C6.85149 25.6632 1.42574 20.2375 1.42574 13.5445ZM6.68311 9.26718C6.68311 8.87348 7.00228 8.55431 7.39598 8.55431H11.6732C11.9432 8.55431 12.19 8.70687 12.3108 8.94838C12.4316 9.18989 12.4055 9.47889 12.2435 9.6949L10.3492 12.2206C10.4455 12.26 10.54 12.3041 10.6325 12.3527C11.103 12.6 11.5063 12.958 11.8077 13.3958C12.1091 13.8336 12.2995 14.3381 12.3627 14.8658C12.4258 15.3936 12.3597 15.9288 12.17 16.4253C11.9804 16.9219 11.6729 17.3649 11.274 17.7162C10.8751 18.0674 10.3968 18.3165 9.88028 18.4419C9.36376 18.5673 8.8245 18.5653 8.30894 18.4359C7.79339 18.3066 7.31699 18.0539 6.92078 17.6996C6.62731 17.4372 6.60215 16.9865 6.8646 16.6931C7.12704 16.3996 7.5777 16.3744 7.87118 16.6369C8.09512 16.8371 8.36439 16.98 8.65579 17.053C8.94719 17.1261 9.25199 17.1273 9.54394 17.0564C9.83589 16.9855 10.1062 16.8448 10.3317 16.6462C10.5571 16.4476 10.731 16.1973 10.8381 15.9166C10.9453 15.636 10.9827 15.3335 10.947 15.0352C10.9114 14.7369 10.8037 14.4517 10.6333 14.2042C10.463 13.9568 10.235 13.7545 9.96909 13.6147C9.70316 13.4749 9.40724 13.4018 9.10682 13.4018C8.83681 13.4018 8.58999 13.2492 8.46924 13.0077C8.3485 12.7662 8.37457 12.4772 8.53657 12.2612L10.2475 9.98005H7.39598C7.00228 9.98005 6.68311 9.66089 6.68311 9.26718ZM19.2873 10.4255C18.8578 10.1283 18.3835 9.97986 17.9108 9.98005C17.4381 9.98024 16.9638 10.1291 16.5344 10.4266C16.1034 10.7253 15.7308 11.1655 15.4663 11.7153C15.2018 12.265 15.0593 12.8963 15.0593 13.5444C15.0593 14.1925 15.2018 14.8237 15.4663 15.3735C15.7308 15.9232 16.1034 16.3635 16.5344 16.6622C16.9638 16.9597 17.4381 17.1085 17.9108 17.1087C18.3835 17.1089 18.8578 16.9605 19.2873 16.6633C19.6111 16.4393 20.0552 16.5201 20.2792 16.8439C20.5032 17.1677 20.4223 17.6117 20.0986 17.8357C19.444 18.2886 18.6889 18.5348 17.9102 18.5345C17.1315 18.5341 16.3766 18.2874 15.7223 17.834C15.0697 17.3817 14.5426 16.7422 14.1815 15.9916C13.8204 15.2412 13.6336 14.3976 13.6336 13.5444C13.6336 12.6912 13.8204 11.8476 14.1815 11.0971C14.5426 10.3466 15.0697 9.70704 15.7223 9.25477C16.3766 8.80138 17.1315 8.55463 17.9102 8.55431C18.6889 8.554 19.444 8.80015 20.0986 9.25304C20.4223 9.47705 20.5032 9.92112 20.2792 10.2449C20.0552 10.5686 19.6111 10.6495 19.2873 10.4255Z" fill="white"/>
<defs>
<linearGradient id="paint0_linear_2002_5900" x1="35.2873" y1="9.62372" x2="9.62403" y2="35.287" gradientUnits="userSpaceOnUse">
<stop stop-color="#304E97"/>
<stop offset="1" stop-color="#E0E5F1"/>
</linearGradient>
</defs>
</svg>
