<svg width="145" height="36" viewBox="0 0 145 36" fill="none" xmlns="http://www.w3.org/2000/svg">
<path fill-rule="evenodd" clip-rule="evenodd" d="M5.13187 6.23388H6.04024L5.63383 0H4.842L3.02349 3.93523L1.19793 0H0.40641L0 6.23388H0.908368L1.17082 2.1065L2.74816 5.42867H3.29208L4.86942 2.1065L5.13187 6.23388Z" fill="#304E97"/>
<path fill-rule="evenodd" clip-rule="evenodd" d="M32.859 6.23388V0H33.7577V2.29837H34.741C35.3095 2.29837 35.8357 2.4606 36.2251 2.79381C36.6201 3.13189 36.8487 3.62496 36.8487 4.22704C36.8487 4.8325 36.6204 5.32601 36.2247 5.66354C35.8349 5.99595 35.3086 6.23388 34.741 6.23388H32.859ZM33.7577 5.26904H34.741C35.145 5.26904 35.4479 5.15993 35.6451 4.98954C35.8366 4.82403 35.9578 4.57569 35.9578 4.22704C35.9578 3.87838 35.8366 3.63004 35.6451 3.46453C35.4479 3.29415 35.145 3.18503 34.741 3.18503H33.7577V5.26904Z" fill="#304E97"/>
<path fill-rule="evenodd" clip-rule="evenodd" d="M31.152 6.23388V0H27.8941L26.8585 5.26904H26.0411V6.23388H27.5935L28.6368 0.972665H30.2533V6.23388H31.152Z" fill="#304E97"/>
<path fill-rule="evenodd" clip-rule="evenodd" d="M21.1782 6.23388V0H25.0122V0.972665H22.0769V2.61889H24.6462V3.50555H22.0769V5.26122H25.0122V6.23388H21.1782Z" fill="#304E97"/>
<path fill-rule="evenodd" clip-rule="evenodd" d="M14.9394 7V6.23388H18.9693V7H19.8523V5.26904H19.1828V0H15.9171L14.8816 5.26904H14.0564V7H14.9394ZM18.2763 5.26904V0.972665H16.6601L15.8002 5.26904H18.2763Z" fill="#304E97"/>
<path fill-rule="evenodd" clip-rule="evenodd" d="M10.3576 6.23388C8.62347 6.23388 7.32331 4.82907 7.32331 3.11695C7.32331 1.40482 8.62347 9.85075e-06 10.3576 9.85075e-06C12.0761 9.85075e-06 13.384 1.40482 13.384 3.11695C13.384 4.82907 12.0761 6.23388 10.3576 6.23388ZM10.3576 5.33158C11.5497 5.33158 12.4854 4.34549 12.4854 3.11695C12.4854 1.8884 11.5497 0.902307 10.3576 0.902307C9.14979 0.902307 8.22196 1.8884 8.22196 3.11695C8.22196 4.34549 9.14979 5.33158 10.3576 5.33158Z" fill="#304E97"/>
<path d="M43.2589 0.972665H40.8591V9.85075e-06H44.7008V0.798566L43.4913 1.97051C43.8253 2.06286 44.1266 2.22194 44.3725 2.44648C44.7718 2.8111 45.0044 3.32998 45.0044 3.95342C45.0044 5.26968 43.9741 6.23388 42.7099 6.23388C41.6956 6.23388 40.8156 5.55848 40.5366 4.60979L40.4224 4.22149H41.3417L41.4132 4.42232C41.6049 4.96138 42.1161 5.3394 42.7099 5.3394C43.5025 5.3394 44.1136 4.76221 44.1136 3.95342C44.1136 3.49466 43.9307 3.18147 43.6551 2.98757C43.3697 2.78672 42.9533 2.69301 42.4662 2.75283L42.1282 2.79433V2.07426L43.2589 0.972665Z" fill="#304E97"/>
<path d="M46.0772 3.11695C46.0772 4.82907 47.3774 6.23388 49.1115 6.23388C49.8381 6.23388 50.4897 5.98378 51 5.56596L50.3554 4.9187C50.009 5.17864 49.5808 5.33158 49.1115 5.33158C47.905 5.33158 46.9837 4.3468 46.9837 3.11695C46.9837 1.8871 47.905 0.902307 49.1115 0.902307C49.5806 0.902307 50.009 1.05448 50.3554 1.31385L50.9976 0.669011C50.4863 0.250208 49.8352 9.85075e-06 49.1115 9.85075e-06C47.3774 9.85075e-06 46.0772 1.40482 46.0772 3.11695Z" fill="#304E97"/>
<path d="M5.33677 13H7.08421L3.21151 21.4982H0.673V19.8693H2.20791L2.68019 18.8425L0 13H1.74744L3.5421 17.0012L5.33677 13Z" fill="#1A1C1E"/>
<path d="M14.4265 13V21.4982H12.7617V14.6878H9.60925V21.4982H7.93265V13H14.4265Z" fill="#1A1C1E"/>
<path d="M18.9567 13C20.4444 13 21.8258 14.1095 21.8258 15.8917C21.8258 17.674 20.4444 18.6654 18.9567 18.6654H17.6343V21.4982H15.9577V13H18.9567ZM18.9567 17.1547C19.736 17.1547 20.2673 16.6825 20.2673 15.8917C20.2673 15.1009 19.736 14.6288 18.9567 14.6288H17.6343V17.1547H18.9567Z" fill="#1A1C1E"/>
<path d="M27.8813 21.4982L27.2674 20.0582H24.1739L23.56 21.4982H21.6945L25.7088 13L29.735 21.4982H27.8813ZM24.7997 18.689H26.6298L25.7088 16.7297L24.7997 18.689Z" fill="#1A1C1E"/>
<path d="M35.5626 17.0838C36.1175 17.4851 36.4836 18.0871 36.4836 18.8897C36.4836 20.4595 35.2556 21.4982 33.7089 21.4982H30.4974V13H33.4374C35.0195 13 36.1884 13.9206 36.1884 15.514C36.1884 16.1868 35.9522 16.7061 35.5626 17.0838ZM33.2839 14.5816H32.174V16.4937H33.2839C34.0631 16.4937 34.6181 16.2694 34.6181 15.514C34.6181 14.7704 34.0631 14.5816 33.2839 14.5816ZM33.6027 19.8693C34.3937 19.8693 34.9132 19.5743 34.9132 18.8661C34.9132 18.1579 34.3937 17.8392 33.6027 17.8392H32.174V19.8693H33.6027Z" fill="#1A1C1E"/>
<path d="M44.3798 13V21.4982H42.715V14.6878H40.7904L39.4445 21.4982H36.8823V19.8693H38.0512L39.409 13H44.3798Z" fill="#1A1C1E"/>
<path d="M45.9134 21.4982V13H51.3682V14.6878H47.59V16.4701H50.8133V17.9218H47.59V19.8103H51.3682V21.4982H45.9134Z" fill="#1A1C1E"/>
<path d="M57.6307 13H59.2955V21.4982H57.6307V17.8628H54.2776V21.4982H52.601V13H54.2776V16.3993H57.6307V13Z" fill="#1A1C1E"/>
<path d="M67.6816 13V21.4982H66.0169V15.9153L62.7699 21.4982H60.8336V13H62.5102V18.571L65.7571 13H67.6816Z" fill="#1A1C1E"/>
<path d="M69.2161 21.4982V13H74.6709V14.6878H70.8927V16.4701H74.116V17.9218H70.8927V19.8103H74.6709V21.4982H69.2161Z" fill="#1A1C1E"/>
<path d="M84.7885 13V14.6288H82.4743V21.4982H80.8096V14.6288H78.4954V13H84.7885Z" fill="#1A1C1E"/>
<path d="M88.6688 13C90.1565 13 91.5379 14.1095 91.5379 15.8917C91.5379 17.674 90.1565 18.6654 88.6688 18.6654H87.3464V21.4982H85.6698V13H88.6688ZM88.6688 17.1547C89.4481 17.1547 89.9794 16.6825 89.9794 15.8917C89.9794 15.1009 89.4481 14.6288 88.6688 14.6288H87.3464V17.1547H88.6688Z" fill="#1A1C1E"/>
<path d="M97.3369 13H99.0843L95.2116 21.4982H92.6731V19.8693H94.208L94.6803 18.8425L92.0001 13H93.7476L95.5422 17.0012L97.3369 13Z" fill="#1A1C1E"/>
<path d="M106.993 19.8693H108.008V22.6903H106.497V21.4981H100.912V22.6903H99.4009V19.8693H100.664L102.022 13H106.993V19.8693ZM102.364 19.8693H105.328V14.6878H103.403L102.364 19.8693Z" fill="#1A1C1E"/>
<path d="M112.832 21.4981C110.447 21.4981 108.653 19.5979 108.653 17.2491C108.653 14.9003 110.447 13 112.832 13C115.194 13 116.988 14.9003 116.988 17.2491C116.988 19.5979 115.194 21.4981 112.832 21.4981ZM112.832 19.8339C114.273 19.8339 115.371 18.6654 115.371 17.2491C115.371 15.8327 114.273 14.6642 112.832 14.6642C111.38 14.6642 110.27 15.8327 110.27 17.2491C110.27 18.6654 111.38 19.8339 112.832 19.8339Z" fill="#1A1C1E"/>
<path d="M123.17 17.0838C123.725 17.4851 124.091 18.0871 124.091 18.8897C124.091 20.4595 122.863 21.4981 121.316 21.4981H118.104V13H121.044C122.627 13 123.795 13.9206 123.795 15.514C123.795 16.1868 123.559 16.7061 123.17 17.0838ZM120.891 14.5816H119.781V16.4937H120.891C121.67 16.4937 122.225 16.2694 122.225 15.514C122.225 14.7704 121.67 14.5816 120.891 14.5816ZM121.21 19.8693C122.001 19.8693 122.52 19.5743 122.52 18.8661C122.52 18.1579 122.001 17.8392 121.21 17.8392H119.781V19.8693H121.21Z" fill="#1A1C1E"/>
<path d="M128.137 16.0806C129.636 16.0806 130.982 17.0602 130.982 18.7244C130.982 20.4005 129.636 21.4981 128.137 21.4981H125.149V13H126.826V16.0806H128.137ZM131.986 13H133.651V21.4981H131.986V13ZM128.137 19.8693C128.81 19.8693 129.412 19.4798 129.412 18.7244C129.412 17.9809 128.81 17.5914 128.137 17.5914H126.826V19.8693H128.137Z" fill="#1A1C1E"/>
<path d="M144.25 21.4981H142.585L142.337 16.1278L140.212 20.2824H139.161L137.024 16.1042L136.776 21.4981H135.111L135.501 13H137.26L139.693 17.8274L142.113 13H143.872L144.25 21.4981Z" fill="#1A1C1E"/>
<path d="M6.97794 26.3097V34.8079H5.31315V27.9976H2.16068V34.8079H0.484087V26.3097H6.97794Z" fill="#1A1C1E"/>
<path d="M12.2882 34.8079C9.90322 34.8079 8.10856 32.9076 8.10856 30.5588C8.10856 28.21 9.90322 26.3097 12.2882 26.3097C14.6496 26.3097 16.4443 28.21 16.4443 30.5588C16.4443 32.9076 14.6496 34.8079 12.2882 34.8079ZM12.2882 33.1437C13.7287 33.1437 14.8267 31.9752 14.8267 30.5588C14.8267 29.1425 13.7287 27.974 12.2882 27.974C10.836 27.974 9.72612 29.1425 9.72612 30.5588C9.72612 31.9752 10.836 33.1437 12.2882 33.1437Z" fill="#1A1C1E"/>
<path d="M23.0554 26.3097V27.9386H20.7412V34.8079H19.0764V27.9386H16.7623V26.3097H23.0554Z" fill="#1A1C1E"/>
<path d="M23.9367 34.8079V26.3097H29.3915V27.9976H25.6133V29.7798H28.8366V31.2316H25.6133V33.1201H29.3915V34.8079H23.9367Z" fill="#1A1C1E"/>
<path d="M35.654 26.3097H37.3188V34.8079H35.654V31.1726H32.3008V34.8079H30.6242V26.3097H32.3008V29.709H35.654V26.3097Z" fill="#1A1C1E"/>
<path d="M45.4688 33.1201H46.4842V36H44.9729V34.8079H38.8569V26.3097H40.5335V33.1201H43.804V26.3097H45.4688V33.1201Z" fill="#1A1C1E"/>
<path d="M54.3988 26.3097V34.8079H52.734V29.2251L49.487 34.8079H47.5507V26.3097H49.2273V31.8808L52.4742 26.3097H54.3988Z" fill="#1A1C1E"/>
<path d="M61.3653 34.8079L60.7513 33.3679H57.6579L57.0439 34.8079H55.1784L59.1928 26.3097L63.219 34.8079H61.3653ZM58.2836 31.9988H60.1137L59.1928 30.0395L58.2836 31.9988Z" fill="#1A1C1E"/>
<path d="M71.0839 26.3097V34.8079H69.4191V27.9976H67.4946L66.1486 34.8079H63.5865V33.1791H64.7554L66.1132 26.3097H71.0839Z" fill="#1A1C1E"/>
<path d="M76.3966 34.8079C74.0116 34.8079 72.2169 32.9076 72.2169 30.5588C72.2169 28.21 74.0116 26.3097 76.3966 26.3097C78.758 26.3097 80.5527 28.21 80.5527 30.5588C80.5527 32.9076 78.758 34.8079 76.3966 34.8079ZM76.3966 33.1437C77.8371 33.1437 78.9351 31.9752 78.9351 30.5588C78.9351 29.1425 77.8371 27.974 76.3966 27.974C74.9443 27.974 73.8345 29.1425 73.8345 30.5588C73.8345 31.9752 74.9443 33.1437 76.3966 33.1437Z" fill="#1A1C1E"/>
<path d="M90.6918 34.8079H89.0271L88.7791 29.4375L86.6538 33.5922H85.603L83.466 29.4139L83.218 34.8079H81.5532L81.9429 26.3097H83.7021L86.1343 31.1372L88.5548 26.3097H90.314L90.6918 34.8079Z" fill="#1A1C1E"/>
</svg>
