<svg width="12" height="12" viewBox="0 0 12 12" fill="none" xmlns="http://www.w3.org/2000/svg">
<path fill-rule="evenodd" clip-rule="evenodd" d="M9.34439 1.51442C9.07804 1.52698 8.73474 1.57242 8.23304 1.63948L4.77228 2.10212C4.57711 2.12821 4.51821 2.13677 4.47243 2.14775C4.03862 2.25179 3.71772 2.61927 3.67219 3.06414C3.66739 3.11109 3.66671 3.17075 3.66671 3.36816C3.66671 3.65886 3.43166 3.89452 3.14171 3.89452C2.85176 3.89452 2.61671 3.65886 2.61671 3.36816C2.61671 3.35903 2.61671 3.35003 2.6167 3.34116C2.61667 3.18251 2.61664 3.06447 2.62767 2.95669C2.71873 2.06695 3.36053 1.33199 4.22815 1.12391C4.33325 1.0987 4.44996 1.08312 4.60681 1.06219C4.61558 1.06102 4.62448 1.05983 4.6335 1.05862L8.11734 0.592906C8.5903 0.529674 8.97837 0.47779 9.29504 0.462852C9.62206 0.447424 9.92658 0.467459 10.2176 0.583485C10.6651 0.761892 11.0379 1.0891 11.2734 1.51027C11.4266 1.78418 11.4867 2.08416 11.5146 2.4112C11.5417 2.72788 11.5417 3.12042 11.5417 3.59881V8.40115C11.5417 8.87954 11.5417 9.27208 11.5146 9.58876C11.4867 9.9158 11.4266 10.2158 11.2734 10.4897C11.0379 10.9109 10.6651 11.2381 10.2176 11.4165C9.92658 11.5325 9.62206 11.5525 9.29504 11.5371C8.97837 11.5222 8.5903 11.4703 8.11734 11.4071L4.60666 10.9378C3.59351 10.8025 2.73743 10.1158 2.62768 9.04327C2.61664 8.93549 2.61667 8.81745 2.6167 8.6588C2.61671 8.64993 2.61671 8.64093 2.61671 8.6318C2.61671 8.3411 2.85176 8.10543 3.14171 8.10543C3.43166 8.10543 3.66671 8.3411 3.66671 8.6318C3.66671 8.82921 3.66739 8.88887 3.67219 8.93582C3.73473 9.54691 4.2288 9.82518 4.77228 9.89784L8.23304 10.3605C8.73474 10.4275 9.07804 10.473 9.34439 10.4855C9.6055 10.4979 9.73841 10.4746 9.82967 10.4382C10.0534 10.349 10.2398 10.1854 10.3576 9.97485C10.4056 9.88897 10.4461 9.75995 10.4685 9.49883C10.4913 9.23247 10.4917 8.8853 10.4917 8.37784V3.62212C10.4917 3.11466 10.4913 2.76748 10.4685 2.50113C10.4461 2.24001 10.4056 2.11099 10.3576 2.02511C10.2398 1.81453 10.0534 1.65092 9.82966 1.56172C9.73841 1.52534 9.6055 1.5021 9.34439 1.51442ZM5.92048 3.52233C6.1255 3.31677 6.45791 3.31677 6.66294 3.52233L8.76294 5.62778C8.96796 5.83334 8.96796 6.16662 8.76294 6.37218L6.66294 8.47763C6.45791 8.68319 6.1255 8.68319 5.92048 8.47763C5.71545 8.27207 5.71545 7.9388 5.92048 7.73324L7.12425 6.52634H0.983374C0.693425 6.52634 0.458374 6.29068 0.458374 5.99998C0.458374 5.70928 0.693425 5.47362 0.983374 5.47362H7.12425L5.92048 4.26672C5.71545 4.06116 5.71545 3.72789 5.92048 3.52233Z" fill="#3F5DA6"/>
</svg>
